<svg width="28" height="51" viewBox="0 0 28 51" fill="none" xmlns="http://www.w3.org/2000/svg">
<path d="M14 0C21.732 0 28 6.26801 28 14C28 21.732 21.732 28 14 28C6.26801 28 0 21.732 0 14C0 6.26801 6.26801 0 14 0ZM14 6C9.58172 6 6 9.58172 6 14C6 18.4183 9.58172 22 14 22C18.4183 22 22 18.4183 22 14C22 9.58172 18.4183 6 14 6Z" fill="white"/>
<path d="M10 23H18V47C18 49.2091 16.2091 51 14 51C11.7909 51 10 49.2091 10 47V23Z" fill="white"/>
<path d="M17 46L17 38L24 38C26.2091 38 28 39.7909 28 42C28 44.2091 26.2091 46 24 46L17 46Z" fill="white"/>
</svg>
