<svg width="47" height="54" viewBox="0 0 47 54" fill="none" xmlns="http://www.w3.org/2000/svg">
<path d="M2.10352 33.8442V48.5613C2.10352 50.0391 3.30153 51.2371 4.77935 51.2371H42.241C43.7188 51.2371 44.9168 50.0391 44.9168 48.5613V33.8442" stroke="white" stroke-width="4.01375" stroke-linecap="round"/>
<path d="M21.5029 41.2028C21.5029 42.6806 22.7009 43.8786 24.1787 43.8786C25.6565 43.8786 26.8545 42.6806 26.8545 41.2028H21.5029ZM26.0708 1.18008C25.0258 0.135099 23.3316 0.135099 22.2866 1.18008L5.25773 18.209C4.21275 19.2539 4.21275 20.9482 5.25773 21.9932C6.30271 23.0381 7.99695 23.0381 9.04193 21.9932L24.1787 6.85637L39.3155 21.9932C40.3605 23.0381 42.0547 23.0381 43.0997 21.9932C44.1447 20.9482 44.1447 19.2539 43.0997 18.209L26.0708 1.18008ZM24.1787 41.2028H26.8545V3.07217H24.1787H21.5029V41.2028H24.1787Z" fill="white"/>
</svg>
