<svg width="190" height="149" viewBox="0 0 190 149" fill="none" xmlns="http://www.w3.org/2000/svg">
<path d="M15.125 37.3982H42.9272V141.326H32.0494C22.7023 141.326 15.125 133.749 15.125 124.401V37.3982Z" fill="#D1D5DB"/>
<path d="M164.768 37.3982H136.965V141.326H147.843C157.19 141.326 164.768 133.749 164.768 124.401V37.3982Z" fill="#D1D5DB"/>
<path d="M89.8942 40.2856L89.8942 74.3895L14.9857 37.391L14.9857 31.393C14.9857 18.9127 28.5715 10.6364 39.9932 16.1588L89.8942 40.2856Z" fill="#D1D5DB"/>
<path d="M89.682 40.2856L89.682 74.3895L164.59 37.391L164.59 31.393C164.59 18.9127 151.005 10.6364 139.583 16.1588L89.682 40.2856Z" fill="#D1D5DB"/>
<path d="M88.4196 114.884L91.2817 110.785L88.4196 114.884L127.643 142.266C132.668 145.775 139.564 142.179 139.564 136.05V124.907C155.251 125.258 162.061 128.253 165.15 130.77C166.775 132.094 167.589 133.456 168.156 134.759C168.419 135.361 168.614 135.911 168.846 136.567C168.893 136.699 168.942 136.835 168.993 136.977L169.002 137.004C169.247 137.689 169.662 138.85 170.323 139.878C172.066 142.59 174.827 144.2 177.99 143.852C181.515 143.465 183.381 140.917 184.143 138.894C184.857 136.998 184.904 134.994 184.752 133.496C183.067 116.908 174.302 105.913 164.12 99.0804C155.959 93.604 146.86 90.7608 139.564 89.6292V77.1731C139.564 70.9201 132.42 67.3556 127.424 71.1156L88.1657 100.66C83.3906 104.254 83.5193 111.463 88.4196 114.884Z" fill="#D1D5DB" stroke="#1C1F29" stroke-width="10"/>
</svg>
