<svg width="193" height="115" viewBox="0 0 193 115" fill="none" xmlns="http://www.w3.org/2000/svg">
<rect x="5.46427" y="5.88474" width="150.071" height="91.2883" rx="5.84984" stroke="#D1D5DB" stroke-width="9.85237"/>
<path d="M76.5009 63.4436C78.7789 65.478 82.2211 65.478 84.4991 63.4436L148.088 6.65445H12.9116L76.5009 63.4436Z" stroke="#D1D5DB" stroke-width="9.85237"/>
<path d="M91.4196 80.8844L94.2817 76.7846L91.4196 80.8844L130.643 108.266C135.668 111.775 142.564 108.179 142.564 102.05V90.9068C158.251 91.2579 165.061 94.2533 168.15 96.7701C169.775 98.0937 170.589 99.456 171.156 100.759C171.419 101.361 171.614 101.911 171.846 102.567C171.893 102.699 171.942 102.835 171.993 102.977L172.002 103.004C172.247 103.689 172.662 104.85 173.323 105.878C175.066 108.59 177.827 110.2 180.99 109.852C184.515 109.465 186.381 106.917 187.143 104.894C187.857 102.998 187.904 100.994 187.752 99.4956C186.067 82.9084 177.302 71.9133 167.12 65.0804C158.959 59.604 149.86 56.7608 142.564 55.6292V43.1731C142.564 36.9201 135.42 33.3556 130.424 37.1156L91.1657 66.6605C86.3906 70.2542 86.5193 77.4635 91.4196 80.8844Z" fill="#D1D5DB" stroke="#1C1F29" stroke-width="10"/>
</svg>
