<svg width="190" height="162" viewBox="0 0 190 162" fill="none" xmlns="http://www.w3.org/2000/svg">
<path d="M132.393 68.6283C132.393 103.845 103.845 132.393 68.6283 132.393C59.121 132.393 50.1123 130.316 42.02 126.594C40.735 126.004 39.4821 125.981 38.709 126.025C37.8637 126.073 37.0374 126.238 36.309 126.426C34.8507 126.801 33.2172 127.416 31.5908 128.1C28.5301 129.389 24.8686 131.195 21.3573 132.927C21.1185 133.045 20.8803 133.162 20.643 133.279C16.8161 135.166 13.2254 136.918 10.3898 138.052C10.3662 138.061 10.3427 138.071 10.3194 138.08C10.8218 135.48 11.7394 132.214 12.7637 128.642C12.8298 128.412 12.8964 128.18 12.9632 127.947C13.9639 124.462 15.0327 120.74 15.6605 117.623C15.994 115.967 16.2545 114.244 16.2643 112.681C16.2718 111.476 16.1654 109.205 14.7159 107.336C10.479 101.071 8.0767 95.622 6.69019 89.7953C5.27078 83.8304 4.86342 77.2622 4.86342 68.6283C4.86342 33.4119 33.4119 4.86342 68.6283 4.86342C103.845 4.86342 132.393 33.4119 132.393 68.6283ZM9.9613 141.394C9.97764 141.462 9.98164 141.501 9.97955 141.504C9.97747 141.507 9.96931 141.473 9.9613 141.394Z" stroke="#D1D5DB" stroke-width="9.72684"/>
<path d="M53.1863 37.7453C44.9234 31.1751 36.9797 41.841 33.7103 48.6025C33.4872 49.0639 33.3708 49.5652 33.3717 50.0777C33.4102 72.4555 60.2564 99.2507 76.18 103.058C92.2875 106.91 97.8503 102.221 103.102 91.6859C108.354 81.1508 100.615 78.4877 89.6207 77.9589C78.6268 77.4302 84.5814 82.1598 78.393 86.3478C72.2046 90.5357 59.4997 73.3499 55.6229 68.3998C53.428 65.5972 55.2653 62.5727 57.5415 60.4392C59.1857 58.898 60.7607 57.1273 60.8948 54.8776C61.1796 50.099 59.8336 43.0309 53.1863 37.7453Z" fill="#D1D5DB"/>
<circle cx="99.9822" cy="70.7893" r="34.7264" transform="rotate(-44.7586 99.9822 70.7893)" stroke="#1C1F29" stroke-width="25.7718"/>
<path d="M120.592 91.2618L163.036 134.065" stroke="#1C1F29" stroke-width="25.7718"/>
<circle cx="99.6116" cy="70.7877" r="33.566" transform="rotate(-44.7586 99.6116 70.7877)" stroke="#D1D5DB" stroke-width="9.65927"/>
<path d="M122.398 93.4233L162.866 134.233" stroke="#D1D5DB" stroke-width="9.65927"/>
</svg>
