<svg width="51" height="38" viewBox="0 0 51 38" fill="none" xmlns="http://www.w3.org/2000/svg">
<path d="M50.449 26.0096C50.4728 25.8031 50.4161 25.6002 50.2986 25.4391C50.2277 25.342 50.1355 25.2609 50.0236 25.2021L2.67527 0.279689C2.19095 0.0252254 1.60276 0.0697124 1.16161 0.395647C0.721036 0.721164 0.504931 1.2699 0.605757 1.80849L3.1935 15.5922L34.9222 23.7815L3.83475 19.0072L7.05853 36.1782C7.09771 36.3895 7.18507 36.5876 7.30842 36.7566C7.41366 36.9009 7.54417 37.0246 7.69686 37.1217C8.03071 37.3329 8.43777 37.3973 8.82055 37.2984L49.8491 26.6979C50.1724 26.6151 50.4112 26.3411 50.449 26.0096Z" fill="white" fill-opacity="0.1"/>
</svg>
