<svg width="22" height="22" viewBox="0 0 22 22" fill="none" xmlns="http://www.w3.org/2000/svg">
<path d="M11 0.879883C5.42036 0.879883 0.880005 5.42024 0.880005 10.9999C0.880005 16.5795 5.42036 21.1199 11 21.1199C16.5796 21.1199 21.12 16.5795 21.12 10.9999C21.12 5.42024 16.5796 0.879883 11 0.879883ZM14.8324 14.2075C15.004 14.3791 15.004 14.6607 14.8324 14.8323C14.7444 14.9159 14.6344 14.9599 14.52 14.9599C14.4056 14.9599 14.2956 14.9159 14.2076 14.8323L11 11.6247L7.7924 14.8323C7.7044 14.9159 7.5944 14.9599 7.48 14.9599C7.3656 14.9599 7.25561 14.9159 7.16761 14.8323C6.99601 14.6607 6.99601 14.3791 7.16761 14.2075L10.3752 10.9999L7.16761 7.79228C6.99601 7.62068 6.99601 7.33908 7.16761 7.16748C7.33921 6.99588 7.6208 6.99588 7.7924 7.16748L11 10.3751L14.2076 7.16748C14.3792 6.99588 14.6608 6.99588 14.8324 7.16748C15.004 7.33908 15.004 7.62068 14.8324 7.79228L11.6248 10.9999L14.8324 14.2075Z" fill="#FFFDFD"/>
</svg>
