<svg width="28" height="20" viewBox="0 0 28 20" fill="none" xmlns="http://www.w3.org/2000/svg">
<path d="M28 0.412571C28 0.408318 28 0.404537 27.9988 0.400284C27.9976 0.39603 27.9972 0.385397 27.9967 0.378072C27.9941 0.345265 27.9875 0.312896 27.9771 0.281664C27.9757 0.277411 27.9771 0.272921 27.9745 0.268668C27.9719 0.264414 27.9721 0.265123 27.9714 0.263233C27.9579 0.228908 27.9399 0.196558 27.9178 0.167061C27.9128 0.160444 27.9076 0.154537 27.9022 0.148157C27.8807 0.122103 27.8561 0.0987735 27.8289 0.0786862C27.8261 0.0765596 27.8237 0.0739604 27.8209 0.07207C27.7905 0.0520688 27.7576 0.036178 27.7231 0.0248113C27.715 0.0219758 27.707 0.0196125 27.6994 0.0172495C27.6631 0.00633653 27.6254 0.000531122 27.5874 0H0.412571C0.374617 0.000531122 0.336922 0.00633653 0.300567 0.0172495C0.292297 0.0196125 0.284499 0.0219758 0.276938 0.0248113C0.242386 0.036178 0.209492 0.0520688 0.179112 0.07207C0.176276 0.0739604 0.173913 0.0765596 0.171078 0.0786862C0.143922 0.0987735 0.119323 0.122103 0.0978261 0.148157C0.0926276 0.154537 0.0871928 0.160444 0.0822306 0.167061C0.060105 0.196558 0.0420624 0.228908 0.0285916 0.263233C0.0285916 0.265123 0.0262287 0.266777 0.0255198 0.268668C0.0248109 0.270558 0.0243383 0.277411 0.0229205 0.281664C0.0125346 0.312896 0.00594972 0.345265 0.00330811 0.378072C0.00330811 0.385633 0.00118139 0.392958 0.00118139 0.400284C0.00118139 0.407609 0 0.408318 0 0.412571V19.2252C0 19.2306 0.00141776 19.2358 0.00165406 19.2413C0.00234346 19.2561 0.00384222 19.271 0.00614367 19.2857C0.00803403 19.2977 0.00968808 19.3093 0.0125236 19.3216C0.0161708 19.3359 0.020588 19.35 0.0257561 19.3639C0.0297731 19.375 0.0335538 19.3861 0.038516 19.3967C0.0450686 19.4107 0.0524056 19.4243 0.0604915 19.4374C0.0661626 19.4468 0.0718336 19.4565 0.0782136 19.4655C0.0873749 19.478 0.0972363 19.49 0.10775 19.5014C0.115548 19.5099 0.123346 19.5184 0.13138 19.5265C0.136342 19.531 0.140123 19.5364 0.145321 19.5409C0.15052 19.5454 0.153828 19.5449 0.157609 19.548C0.189868 19.574 0.225878 19.5949 0.264414 19.6101C0.272684 19.6134 0.281191 19.6153 0.289697 19.6179C0.326974 19.6301 0.365808 19.6369 0.405009 19.638C0.407845 19.638 0.410444 19.6394 0.41328 19.6394H0.418715H27.5813H27.5867C27.5896 19.6394 27.5922 19.638 27.5948 19.638C27.634 19.6369 27.673 19.6301 27.7103 19.6179C27.7186 19.6153 27.7268 19.6134 27.7339 19.6101C27.7726 19.5949 27.8086 19.574 27.841 19.548C27.8448 19.5449 27.8495 19.544 27.8533 19.5409C27.857 19.5378 27.8622 19.531 27.8672 19.5265C27.8757 19.5184 27.8835 19.5102 27.8908 19.5014C27.9013 19.49 27.9112 19.478 27.9204 19.4655C27.9268 19.4565 27.9324 19.4471 27.9381 19.4374C27.9462 19.4243 27.9535 19.4107 27.9601 19.3967C27.965 19.3861 27.9688 19.375 27.9728 19.3639C27.978 19.35 27.9824 19.3359 27.9861 19.3216C27.9889 19.3098 27.9905 19.298 27.9924 19.2857C27.9947 19.271 27.9962 19.2561 27.9969 19.2413C27.9969 19.2358 27.9986 19.2306 27.9986 19.2252L28 0.412571ZM9.69896 8.94849L13.7297 12.4166C13.8047 12.4811 13.9004 12.5166 13.9994 12.5166C14.0984 12.5166 14.1941 12.4811 14.2691 12.4166L18.3001 8.94849L26.6914 18.8117H1.30789L9.69896 8.94849ZM0.826087 18.1016V1.31404L9.07278 8.40903L0.826087 18.1016ZM18.9263 8.40903L27.173 1.31404V18.1016L18.9263 8.40903ZM26.4714 0.826087L18.0818 8.04513C18.0803 8.04631 18.0784 8.04702 18.077 8.04844C18.0756 8.04986 18.0742 8.05175 18.0725 8.05317L13.9995 11.5577L9.92651 8.05317C9.92486 8.05175 9.92368 8.04986 9.92202 8.04844L9.9173 8.04513L1.52717 0.826087H26.4714Z" fill="white"/>
</svg>
