<svg width="50" height="38" viewBox="0 0 50 38" fill="none" xmlns="http://www.w3.org/2000/svg">
<path fill-rule="evenodd" clip-rule="evenodd" d="M46.875 31.5C46.875 31.8172 46.8141 32.1172 46.7266 32.4031L32.8125 17.4375L46.875 6.5V31.5ZM5.55625 34.5406L19.6562 19.5156L25 23.5547L30.1125 19.4906L44.4437 34.5406C44.2203 34.5922 5.77969 34.5922 5.55625 34.5406ZM3.125 31.5V6.5L17.1875 17.4375L3.27344 32.4031C3.18594 32.1172 3.125 31.8172 3.125 31.5ZM45.3125 3.375L25 19L4.6875 3.375H45.3125ZM43.75 0.25H6.25C2.79844 0.25 0 3.04844 0 6.5V31.5C0 34.9516 2.79844 37.75 6.25 37.75H43.75C47.2016 37.75 50 34.9516 50 31.5V6.5C50 3.04844 47.2016 0.25 43.75 0.25Z" fill="white" fill-opacity="0.1"/>
</svg>
