<svg width="57" height="33" viewBox="0 0 57 33" fill="none" xmlns="http://www.w3.org/2000/svg">
<path d="M56.1419 3.86813C56.0758 3.67106 55.9384 3.51147 55.7636 3.41549C55.6582 3.35763 55.5403 3.3233 55.414 3.31757L1.96406 0.849185C1.41753 0.824358 0.90383 1.1143 0.642743 1.59667C0.381997 2.07841 0.419243 2.66699 0.739147 3.11186L8.93286 14.4939L41.1376 8.44123L10.963 17.3138L21.1704 31.4929C21.2955 31.6675 21.4587 31.8098 21.6422 31.9105C21.7987 31.9965 21.9694 32.0531 22.1488 32.0762C22.5408 32.1257 22.9367 32.0112 23.2413 31.7592L55.8909 4.74599C56.1485 4.53378 56.2484 4.1843 56.1419 3.86813Z" fill="white" fill-opacity="0.1"/>
</svg>
