<svg width="329" height="327" viewBox="0 0 329 327" fill="none" xmlns="http://www.w3.org/2000/svg">
<path fill-rule="evenodd" clip-rule="evenodd" d="M310.532 99.1571C321.651 107.57 328.167 120.659 328.167 134.553V281.833C328.167 306.411 308.132 326.333 283.417 326.333H44.75C20.0353 326.333 0 306.411 0 281.833V134.553C0 120.659 6.51485 107.57 17.6351 99.1571C50.2302 74.4961 118.309 23.0138 137.233 8.9C153.145 -2.96667 175.022 -2.96667 190.933 8.9C209.857 23.0136 277.936 74.4961 310.532 99.1571ZM29.8333 136.004L136.355 219.63C152.612 232.394 175.554 232.394 191.812 219.63L298.333 136.004V281.833C298.333 290.026 291.655 296.667 283.417 296.667H44.75C36.5118 296.667 29.8333 290.026 29.8333 281.833V136.004ZM173.033 32.6333L280.123 112.502L173.326 196.344C167.906 200.6 160.26 200.6 154.841 196.344L48.0431 112.502L155.133 32.6333C160.438 28.6777 167.729 28.6777 173.033 32.6333Z" fill="white" fill-opacity="0.04"/>
</svg>
