<svg width="29" height="29" viewBox="0 0 29 29" fill="none" xmlns="http://www.w3.org/2000/svg">
<path d="M27.7282 20.384L23.4862 16.142C23.1092 15.764 22.6072 15.556 22.0732 15.556C22.0732 15.556 22.0722 15.556 22.0712 15.556C21.5372 15.556 21.0352 15.765 20.6582 16.142L17.8302 18.97L9.34518 10.485L12.1732 7.657C12.9532 6.877 12.9532 5.607 12.1722 4.827L7.92918 0.585C7.55218 0.208 7.05018 0 6.51618 0C5.98118 0 5.47818 0.209 5.10118 0.587L0.858177 4.83C0.729177 4.958 -0.388823 6.168 0.142177 8.827C0.768177 11.956 3.38818 15.846 7.92918 20.387C14.4282 26.886 18.5272 28.324 20.8822 28.324C22.5122 28.324 23.3082 27.635 23.4862 27.457L27.7282 23.215C28.1062 22.837 28.3152 22.334 28.3142 21.799C28.3142 21.265 28.1062 20.762 27.7282 20.384ZM22.0722 26.042C22.0442 26.07 18.6632 28.291 9.34318 18.972C-0.177822 9.452 2.27618 6.243 2.27218 6.244L6.51518 2L10.7582 6.244L7.22318 9.779C6.83218 10.17 6.83218 10.802 7.22318 11.193L17.1222 21.092C17.5132 21.483 18.1452 21.483 18.5362 21.092L22.0712 17.556L26.3142 21.8L22.0722 26.042Z" fill="white"/>
</svg>
