<svg width="46" height="48" viewBox="0 0 46 48" fill="none" xmlns="http://www.w3.org/2000/svg">
<path fill-rule="evenodd" clip-rule="evenodd" d="M43.4539 14.5216C45.0068 15.741 45.9168 17.6381 45.9168 19.6519V40.9985C45.9168 44.5607 43.1187 47.4482 39.6668 47.4482H6.3335C2.88173 47.4482 0.0834961 44.5607 0.0834961 40.9985V19.6519C0.0834961 17.6381 0.993392 15.741 2.5465 14.5216C7.09889 10.9473 16.6071 3.48549 19.2502 1.43986C21.4725 -0.280082 24.5279 -0.280082 26.7502 1.43986C29.3931 3.48547 38.9014 10.9473 43.4539 14.5216ZM4.25016 19.8621L19.1275 31.9827C21.3981 33.8328 24.6022 33.8328 26.8729 31.9827L41.7502 19.8621V40.9985C41.7502 42.1859 40.8175 43.1484 39.6668 43.1484H6.3335C5.18291 43.1484 4.25016 42.1859 4.25016 40.9985V19.8621ZM24.2502 4.87973L39.2068 16.4558L24.291 28.6078C23.5341 29.2246 22.4662 29.2246 21.7093 28.6078L6.79343 16.4558L21.7502 4.87973C22.491 4.30641 23.5093 4.30641 24.2502 4.87973Z" fill="white" fill-opacity="0.1"/>
</svg>
