<svg width="178" height="164" viewBox="0 0 178 164" fill="none" xmlns="http://www.w3.org/2000/svg">
<path d="M142.969 74.1102C142.969 112.14 112.14 142.969 74.1102 142.969C63.8435 142.969 54.1152 140.725 45.3765 136.707C43.9888 136.068 42.6359 136.044 41.801 136.092C40.8882 136.143 39.9959 136.322 39.2093 136.524C37.6345 136.929 35.8706 137.593 34.1142 138.333C30.8094 139.724 26.856 141.674 23.0646 143.544C22.8062 143.671 22.5486 143.799 22.292 143.925C18.1593 145.962 14.2818 147.854 11.2197 149.079C11.1942 149.089 11.1689 149.099 11.1437 149.109C11.6862 146.302 12.6771 142.775 13.7832 138.918C13.8546 138.669 13.9265 138.419 13.9988 138.167C15.0793 134.404 16.2335 130.385 16.9115 127.018C17.2716 125.23 17.5529 123.369 17.5634 121.681C17.5715 120.381 17.4567 117.928 15.8914 115.909C11.3161 109.145 8.72186 103.26 7.22459 96.968C5.6918 90.5266 5.2519 83.4338 5.2519 74.1102C5.2519 36.0808 36.0808 5.2519 74.1102 5.2519C112.14 5.2519 142.969 36.0808 142.969 74.1102ZM10.7767 152.807C10.7745 152.811 10.7656 152.774 10.757 152.688C10.7746 152.761 10.779 152.804 10.7767 152.807Z" stroke="#D1D5DB" stroke-width="10.5038"/>
<path d="M57.4351 40.7604C48.5123 33.6654 39.934 45.1833 36.4034 52.4849C36.1625 52.9831 36.0369 53.5245 36.0378 54.0779C36.0794 78.2432 65.07 107.179 82.2656 111.291C99.6597 115.45 105.667 110.386 111.338 99.0097C117.01 87.633 108.652 84.7572 96.7799 84.1862C84.9078 83.6152 91.3381 88.7227 84.6554 93.2451C77.9726 97.7676 64.2529 79.209 60.0664 73.8635C57.6962 70.8371 59.6802 67.571 62.1383 65.267C63.9138 63.6027 65.6146 61.6906 65.7594 59.2612C66.067 54.1009 64.6135 46.4683 57.4351 40.7604Z" fill="#D1D5DB"/>
<path d="M76.4196 129.884L79.2817 125.785L76.4196 129.884L115.643 157.266C120.668 160.775 127.564 157.179 127.564 151.05V139.907C143.251 140.258 150.061 143.253 153.15 145.77C154.775 147.094 155.589 148.456 156.156 149.759C156.419 150.361 156.614 150.911 156.846 151.567C156.893 151.699 156.942 151.835 156.993 151.977L157.002 152.004C157.247 152.689 157.662 153.85 158.323 154.878C160.066 157.59 162.827 159.2 165.99 158.852C169.515 158.465 171.381 155.917 172.143 153.894C172.857 151.998 172.904 149.994 172.752 148.496C171.067 131.908 162.302 120.913 152.12 114.08C143.959 108.604 134.86 105.761 127.564 104.629V92.1731C127.564 85.9201 120.42 82.3556 115.424 86.1156L76.1657 115.66C71.3906 119.254 71.5193 126.463 76.4196 129.884Z" fill="#D1D5DB" stroke="#1C1F29" stroke-width="10"/>
</svg>
